<svg version="1.1" id="Layer_1" xmlns="http://www.w3.org/2000/svg" xmlns:xlink="http://www.w3.org/1999/xlink" x="0px" y="0px"
	 width="100%" viewBox="0 0 500 500" enable-background="new 0 0 500 500" xml:space="preserve">
<path fill="#06A18B" opacity="1.000000" stroke="none" 
	d="
M455.000000,1.000000 
	C469.354218,1.000000 483.708466,1.000000 498.531342,1.468600 
	C497.343567,24.941671 496.191528,47.996658 493.894318,70.936958 
	C491.403839,95.806671 485.159912,120.000450 478.129486,143.936630 
	C469.818298,172.233398 458.623383,199.422668 445.403778,225.766983 
	C444.502380,227.563293 442.114746,228.613815 440.325989,229.611160 
	C440.233612,225.292603 440.233612,221.374084 440.233612,216.942429 
	C425.269226,216.942429 411.134338,216.942429 397.025146,216.575424 
	C397.760559,214.551239 398.449554,212.884781 399.183350,211.238312 
	C405.451111,197.175888 411.726990,183.117081 418.461182,168.965393 
	C429.332794,168.873627 439.743652,168.873627 450.256897,168.873627 
	C450.256897,152.811874 450.256897,137.554153 450.256897,121.831696 
	C446.633698,121.831696 443.316284,121.831696 440.032745,121.439972 
	C442.466309,109.694359 444.903412,98.348206 447.258484,86.985069 
	C453.136749,58.622334 455.970367,29.981365 455.000000,1.000000 
z"/>
<path fill="#08A988" opacity="1.000000" stroke="none" 
	d="
M440.418335,230.011200 
	C442.114746,228.613815 444.502380,227.563293 445.403778,225.766983 
	C458.623383,199.422668 469.818298,172.233398 478.129486,143.936630 
	C485.159912,120.000450 491.403839,95.806671 493.894318,70.936958 
	C496.191528,47.996658 497.343567,24.941671 499.000000,1.468600 
	C499.666656,1.331216 500.783875,1.543529 500.908997,2.017662 
	C501.196228,3.106052 501.000000,4.322039 501.000000,5.486235 
	C501.000000,72.011719 501.000000,138.537201 500.674438,205.645493 
	C498.669403,209.582840 496.872742,212.884399 495.328918,216.300247 
	C482.291290,245.147827 467.598663,273.071228 449.610474,299.194916 
	C446.145203,304.227356 443.190277,309.611176 439.536011,314.903748 
	C425.714508,314.927521 412.356934,314.880432 399.085022,314.506653 
	C399.746613,313.176941 400.244476,312.118591 400.910400,311.179382 
	C408.764160,300.102936 416.815063,289.160950 424.435425,277.926788 
	C427.741028,273.053589 430.173920,267.588409 433.453552,262.299988 
	C435.841156,262.207794 437.778412,262.207794 440.418335,262.207794 
	C440.418335,251.125854 440.418335,240.568527 440.418335,230.011200 
z"/>
<path fill="#06A788" opacity="1.000000" stroke="none" 
	d="
M153.000000,501.000000 
	C102.333336,501.000000 51.666679,501.000000 1.000009,501.000000 
	C1.000000,500.000000 1.000000,499.000000 1.468657,497.500000 
	C28.810951,497.912018 55.417408,495.089996 81.846527,490.694519 
	C118.925674,484.527832 155.057297,474.748444 189.703323,460.034576 
	C204.224197,453.867737 218.479172,447.033447 232.621292,440.030518 
	C242.149261,435.312439 251.399139,429.986969 260.527893,424.523010 
	C267.776062,420.184631 274.696564,415.289551 281.679382,410.519958 
	C287.716125,406.396576 293.871826,402.395020 299.555603,397.818756 
	C309.769257,389.595215 319.781860,381.110382 329.638184,372.460907 
	C333.120148,369.405334 335.899658,365.549316 339.460815,361.967590 
	C351.281067,361.937195 362.640442,361.997955 373.974396,362.414612 
	C372.902863,364.409912 372.118591,366.316681 370.765228,367.642548 
	C364.947754,373.341705 359.108398,379.034637 353.007477,384.424713 
	C342.061218,394.095428 331.316254,404.060364 319.757080,412.953339 
	C306.739258,422.968475 293.308319,432.573029 279.338257,441.190887 
	C263.098480,451.208832 246.341553,460.478546 229.333176,469.138275 
	C206.342484,480.843842 182.188522,489.855988 157.612717,497.717957 
	C155.900406,498.265747 154.529617,499.881104 153.000000,501.000000 
z"/>
<path fill="#06A38A" opacity="1.000000" stroke="none" 
	d="
M338.999878,362.058746 
	C335.899658,365.549316 333.120148,369.405334 329.638184,372.460907 
	C319.781860,381.110382 309.769257,389.595215 299.555603,397.818756 
	C293.871826,402.395020 287.716125,406.396576 281.679382,410.519958 
	C274.696564,415.289551 267.776062,420.184631 260.527893,424.523010 
	C251.399139,429.986969 242.149261,435.312439 232.621292,440.030518 
	C218.479172,447.033447 204.224197,453.867737 189.703323,460.034576 
	C155.057297,474.748444 118.925674,484.527832 81.846527,490.694519 
	C55.417408,495.089996 28.810951,497.912018 1.468657,497.000000 
	C1.000000,490.978851 1.000000,484.957703 1.468651,478.468262 
	C11.568011,477.667786 21.217999,477.609619 30.824530,476.933746 
	C42.739143,476.095490 54.776970,475.603546 66.477654,473.432098 
	C88.510315,469.343201 110.460655,464.651703 132.224258,459.310394 
	C162.742416,451.820557 191.445511,439.359131 219.414917,425.231842 
	C246.206451,411.699463 271.047729,395.029053 294.894318,376.903534 
	C300.469696,372.665771 304.992676,367.043488 310.460785,361.966980 
	C320.281097,361.936768 329.640472,361.997772 338.999878,362.058746 
z"/>
<path fill="#07AC86" opacity="1.000000" stroke="none" 
	d="
M153.468658,501.000000 
	C154.529617,499.881104 155.900406,498.265747 157.612717,497.717957 
	C182.188522,489.855988 206.342484,480.843842 229.333176,469.138275 
	C246.341553,460.478546 263.098480,451.208832 279.338257,441.190887 
	C293.308319,432.573029 306.739258,422.968475 319.757080,412.953339 
	C331.316254,404.060364 342.061218,394.095428 353.007477,384.424713 
	C359.108398,379.034637 364.947754,373.341705 370.765228,367.642548 
	C372.118591,366.316681 372.902863,364.409912 374.435303,362.323334 
	C386.947693,361.937317 398.973785,361.998444 410.974457,362.415344 
	C410.255157,364.054474 409.817139,365.592773 408.829742,366.583557 
	C387.135712,388.352081 366.375214,411.207550 341.503357,429.472168 
	C322.402374,443.498962 302.860962,457.027344 282.745056,469.538849 
	C266.595062,479.583649 249.266937,487.729126 232.529770,496.842590 
	C230.783127,497.793640 229.498825,499.593811 228.000000,501.000000 
	C203.312439,501.000000 178.624878,501.000000 153.468658,501.000000 
z"/>
<path fill="#048496" opacity="1.000000" stroke="none" 
	d="
M299.000000,1.000000 
	C310.354218,1.000000 321.708466,1.000000 333.531342,1.453054 
	C333.666656,7.359979 333.455902,12.824688 332.974731,18.265486 
	C331.939423,29.972778 331.706299,41.854717 329.428375,53.324280 
	C325.948212,70.847252 321.138367,88.113670 316.631165,105.420822 
	C315.177826,111.001579 312.899780,116.367554 310.548187,121.902908 
	C308.162140,121.974022 306.226898,121.974022 303.563721,121.974022 
	C303.563721,130.269821 303.563721,138.130508 303.226013,146.027100 
	C301.540680,147.177994 299.750183,148.031754 298.914307,149.448654 
	C291.088257,162.714630 283.656067,176.218826 275.586243,189.331833 
	C272.898590,193.699142 268.698181,197.135483 264.984802,200.683075 
	C259.093140,189.280853 253.405975,178.192963 248.027313,166.929718 
	C249.798279,164.969421 251.572479,163.357101 252.672302,161.371307 
	C259.420410,149.187256 266.462097,137.136353 272.563782,124.630188 
	C283.262756,102.701233 290.073822,79.367950 294.666382,55.499714 
	C298.116821,37.567245 300.110382,19.368406 299.000000,1.000000 
z"/>
<path fill="#047D99" opacity="1.000000" stroke="none" 
	d="
M298.531342,1.000000 
	C300.110382,19.368406 298.116821,37.567245 294.666382,55.499714 
	C290.073822,79.367950 283.262756,102.701233 272.563782,124.630188 
	C266.462097,137.136353 259.420410,149.187256 252.672302,161.371307 
	C251.572479,163.357101 249.798279,164.969421 247.748138,166.759125 
	C239.111984,156.058182 228.885803,147.764557 218.054199,140.011902 
	C244.885040,97.303429 258.470398,51.070850 259.000000,1.000000 
	C272.020905,1.000000 285.041779,1.000000 298.531342,1.000000 
z"/>
<path fill="#0262A4" opacity="1.000000" stroke="none" 
	d="
M1.000000,146.000000 
	C1.000000,135.645767 1.000000,125.291542 1.466555,114.468658 
	C62.922504,114.544495 114.929337,63.632328 114.000000,1.000000 
	C124.687561,1.000000 135.375122,1.000000 146.531342,1.459801 
	C146.478195,8.360336 146.237076,14.838639 145.381027,21.234638 
	C142.976883,39.197247 137.618240,56.250526 128.424820,71.934021 
	C119.228088,87.623184 108.490356,102.045326 93.829987,113.238281 
	C90.799141,115.552277 88.587616,118.939407 85.534721,121.903481 
	C75.331528,121.975029 65.592087,121.975029 55.159805,121.975029 
	C55.159805,127.088051 55.159805,131.544495 54.763397,136.025620 
	C52.142258,136.681076 49.876888,137.196167 47.699322,137.961197 
	C32.581779,143.272263 16.977425,145.708481 1.000000,146.000000 
z"/>
<path fill="#05998E" opacity="1.000000" stroke="none" 
	d="
M1.000000,443.000000 
	C1.000000,437.311951 1.000000,431.623932 1.467839,425.467926 
	C19.484751,423.686005 37.095871,422.917542 54.568344,420.930084 
	C80.724892,417.954895 106.523262,412.685150 131.304688,403.698944 
	C150.027740,396.909607 168.711288,389.703613 186.603195,381.016449 
	C204.512634,372.320770 221.947296,362.369049 238.630768,351.495941 
	C260.240845,337.412109 279.892578,320.655151 298.358612,302.574127 
	C299.673157,301.287018 301.807983,300.837616 303.657379,300.458710 
	C303.689209,308.945374 303.625061,316.972015 303.226685,325.032288 
	C300.909363,326.240082 298.745300,327.190399 296.971893,328.623993 
	C283.286682,339.687073 270.297974,351.739624 255.878433,361.732361 
	C239.822754,372.858978 222.626038,382.379730 205.671906,392.158997 
	C184.551300,404.341583 161.889694,413.323181 138.803558,420.738861 
	C119.705292,426.873535 99.925774,431.010315 80.293350,435.328796 
	C54.210495,441.066162 27.556402,441.712982 1.000000,443.000000 
z"/>
<path fill="#07B383" opacity="1.000000" stroke="none" 
	d="
M501.000000,273.000000 
	C501.000000,286.020905 501.000000,299.041779 500.667542,312.612885 
	C499.098236,314.454285 497.681152,315.616699 496.652222,317.056519 
	C485.362427,332.854736 474.689636,349.130707 462.752045,364.420227 
	C446.396057,385.368744 428.846771,405.390930 409.103394,423.267212 
	C392.614929,438.196350 376.006287,453.052338 358.663696,466.959137 
	C345.590790,477.442047 331.240906,486.327301 317.548065,496.048645 
	C315.761047,497.317352 314.503021,499.331238 313.000000,501.000000 
	C300.979095,501.000000 288.958221,501.000000 276.547546,500.660706 
	C277.659027,498.867950 278.956757,497.083771 280.694458,496.014587 
	C292.158356,488.961090 303.987000,482.465820 315.168945,474.998260 
	C326.463257,467.455658 337.449432,459.374237 348.027466,450.854584 
	C363.936157,438.041626 379.837799,425.147827 394.857513,411.326691 
	C406.331512,400.768311 416.562866,388.836914 427.085419,377.278137 
	C431.410522,372.527100 435.049072,367.151001 439.449432,361.968506 
	C443.296631,361.877808 446.694305,361.877808 450.875397,361.877808 
	C450.875397,355.797546 450.875397,350.399078 451.221130,344.927795 
	C453.573792,342.535645 455.750488,340.340576 457.556549,337.874115 
	C463.413422,329.875549 469.489716,322.004669 474.823364,313.663788 
	C482.576355,301.539459 489.717316,289.024841 497.231323,276.745209 
	C498.129333,275.277618 499.726746,274.237976 501.000000,273.000000 
z"/>
<path fill="#03759C" opacity="1.000000" stroke="none" 
	d="
M258.531342,1.000000 
	C258.470398,51.070850 244.885040,97.303429 217.703491,139.914398 
	C204.759842,135.179291 192.338364,130.222153 180.065857,124.934349 
	C186.697388,112.881737 193.923325,101.502251 199.512604,89.368828 
	C212.390884,61.412106 218.254547,31.799494 218.000000,1.000000 
	C231.354233,1.000000 244.708450,1.000000 258.531342,1.000000 
z"/>
<path fill="#08B782" opacity="1.000000" stroke="none" 
	d="
M313.468628,501.000000 
	C314.503021,499.331238 315.761047,497.317352 317.548065,496.048645 
	C331.240906,486.327301 345.590790,477.442047 358.663696,466.959137 
	C376.006287,453.052338 392.614929,438.196350 409.103394,423.267212 
	C428.846771,405.390930 446.396057,385.368744 462.752045,364.420227 
	C474.689636,349.130707 485.362427,332.854736 496.652222,317.056519 
	C497.681152,315.616699 499.098236,314.454285 500.667542,313.081543 
	C501.000000,326.354218 501.000000,339.708466 500.639526,353.557495 
	C498.809448,355.263733 497.087250,356.269531 495.908386,357.717651 
	C480.401245,376.767242 465.837433,396.669098 449.320160,414.792511 
	C423.861023,442.727203 395.861481,468.091278 365.318390,490.525299 
	C360.985352,493.707916 357.095184,497.493530 353.000000,501.000000 
	C339.979095,501.000000 326.958221,501.000000 313.468628,501.000000 
z"/>
<path fill="#015CA6" opacity="1.000000" stroke="none" 
	d="
M113.531342,1.000000 
	C114.929337,63.632328 62.922504,114.544495 1.466555,114.000000 
	C1.000000,102.312439 1.000000,90.624878 1.455740,78.468658 
	C42.571957,78.086273 78.232506,43.890388 78.000000,1.000000 
	C89.687561,1.000000 101.375122,1.000000 113.531342,1.000000 
z"/>
<path fill="#036E9F" opacity="1.000000" stroke="none" 
	d="
M217.531342,1.000000 
	C218.254547,31.799494 212.390884,61.412106 199.512604,89.368828 
	C193.923325,101.502251 186.697388,112.881737 179.641846,124.936699 
	C164.711975,124.123848 150.355103,122.977974 136.025940,121.483025 
	C136.539062,120.100586 136.884232,118.968475 137.531616,118.049187 
	C143.725571,109.253677 150.428513,100.780022 156.115433,91.670868 
	C173.403992,63.978519 180.512131,33.367634 181.000000,1.000000 
	C193.020889,1.000000 205.041794,1.000000 217.531342,1.000000 
z"/>
<path fill="#08BC80" opacity="1.000000" stroke="none" 
	d="
M353.468689,501.000000 
	C357.095184,497.493530 360.985352,493.707916 365.318390,490.525299 
	C395.861481,468.091278 423.861023,442.727203 449.320160,414.792511 
	C465.837433,396.669098 480.401245,376.767242 495.908386,357.717651 
	C497.087250,356.269531 498.809448,355.263733 500.639526,354.026184 
	C501.000000,368.354218 501.000000,382.708466 500.669373,397.612000 
	C495.923309,403.060059 491.527008,407.976227 487.088623,412.854065 
	C475.059357,426.074615 463.648376,439.938202 450.812286,452.323975 
	C434.490479,468.073120 416.996307,482.606293 400.058380,497.720673 
	C399.133362,498.546082 398.675354,499.894836 398.000000,501.000000 
	C383.312439,501.000000 368.624878,501.000000 353.468689,501.000000 
z"/>
<path fill="#069C8C" opacity="1.000000" stroke="none" 
	d="
M1.000000,443.464661 
	C27.556402,441.712982 54.210495,441.066162 80.293350,435.328796 
	C99.925774,431.010315 119.705292,426.873535 138.803558,420.738861 
	C161.889694,413.323181 184.551300,404.341583 205.671906,392.158997 
	C222.626038,382.379730 239.822754,372.858978 255.878433,361.732361 
	C270.297974,351.739624 283.286682,339.687073 296.971893,328.623993 
	C298.745300,327.190399 300.909363,326.240082 303.322662,325.492065 
	C303.688965,332.278503 303.625092,338.638794 303.226196,345.033081 
	C301.157379,346.019989 299.273590,346.775299 297.714539,347.958527 
	C288.851166,354.685364 280.023895,361.461334 271.261566,368.319305 
	C250.724060,384.393372 228.478485,397.911774 205.063705,409.073883 
	C184.388550,418.929993 162.787766,426.946442 141.282913,434.933075 
	C117.021690,443.943329 91.632965,448.954498 66.121284,452.699615 
	C44.591568,455.860229 22.865583,457.993195 1.000000,457.000000 
	C1.000000,452.643097 1.000000,448.286194 1.000000,443.464661 
z"/>
<path fill="#07B085" opacity="1.000000" stroke="none" 
	d="
M438.999878,362.059204 
	C435.049072,367.151001 431.410522,372.527100 427.085419,377.278137 
	C416.562866,388.836914 406.331512,400.768311 394.857513,411.326691 
	C379.837799,425.147827 363.936157,438.041626 348.027466,450.854584 
	C337.449432,459.374237 326.463257,467.455658 315.168945,474.998260 
	C303.987000,482.465820 292.158356,488.961090 280.694458,496.014587 
	C278.956757,497.083771 277.659027,498.867950 276.078888,500.660706 
	C260.312439,501.000000 244.624878,501.000000 228.468658,501.000000 
	C229.498825,499.593811 230.783127,497.793640 232.529770,496.842590 
	C249.266937,487.729126 266.595062,479.583649 282.745056,469.538849 
	C302.860962,457.027344 322.402374,443.498962 341.503357,429.472168 
	C366.375214,411.207550 387.135712,388.352081 408.829742,366.583557 
	C409.817139,365.592773 410.255157,364.054474 411.435425,362.324493 
	C420.947815,361.938263 429.973846,361.998718 438.999878,362.059204 
z"/>
<path fill="#0268A1" opacity="1.000000" stroke="none" 
	d="
M180.531342,1.000000 
	C180.512131,33.367634 173.403992,63.978519 156.115433,91.670868 
	C150.428513,100.780022 143.725571,109.253677 137.531616,118.049187 
	C136.884232,118.968475 136.539062,120.100586 135.562164,121.554276 
	C118.713272,121.927032 102.355873,121.879478 85.998466,121.831924 
	C88.587616,118.939407 90.799141,115.552277 93.829987,113.238281 
	C108.490356,102.045326 119.228088,87.623184 128.424820,71.934021 
	C137.618240,56.250526 142.976883,39.197247 145.381027,21.234638 
	C146.237076,14.838639 146.478195,8.360336 147.000000,1.459801 
	C158.020889,1.000000 169.041794,1.000000 180.531342,1.000000 
z"/>
<path fill="#05968F" opacity="1.000000" stroke="none" 
	d="
M303.561401,299.998718 
	C301.807983,300.837616 299.673157,301.287018 298.358612,302.574127 
	C279.892578,320.655151 260.240845,337.412109 238.630768,351.495941 
	C221.947296,362.369049 204.512634,372.320770 186.603195,381.016449 
	C168.711288,389.703613 150.027740,396.909607 131.304688,403.698944 
	C106.523262,412.685150 80.724892,417.954895 54.568344,420.930084 
	C37.095871,422.917542 19.484751,423.686005 1.467839,425.000000 
	C1.000000,420.643097 1.000000,416.286194 1.464225,411.464661 
	C21.131187,409.941986 40.422310,410.247498 59.414967,406.266418 
	C73.041679,403.410095 87.041885,402.077423 100.440155,398.454956 
	C117.073845,393.957733 133.432022,388.263184 149.584030,382.217102 
	C163.351273,377.063690 176.978195,371.310883 190.076920,364.660614 
	C202.625031,358.289825 214.630051,350.758026 226.470383,343.111908 
	C236.903214,336.374664 247.342056,329.435486 256.769073,321.401337 
	C271.042114,309.237244 284.414215,296.018097 298.245605,283.330627 
	C299.761444,281.940155 301.778992,281.096649 303.659180,280.459229 
	C303.690125,287.278961 303.625763,293.638824 303.561401,299.998718 
z"/>
<path fill="#06998E" opacity="1.000000" stroke="none" 
	d="
M454.531342,1.000000 
	C455.970367,29.981365 453.136749,58.622334 447.258484,86.985069 
	C444.903412,98.348206 442.466309,109.694359 439.568848,121.510590 
	C426.713745,121.925903 414.356384,121.878876 402.001404,121.430664 
	C402.089050,120.039558 402.070007,119.027489 402.274780,118.062943 
	C406.772064,96.878250 412.314087,75.850533 415.493927,54.471172 
	C418.112823,36.863136 417.937195,18.839470 419.000000,1.000000 
	C430.687561,1.000000 442.375122,1.000000 454.531342,1.000000 
z"/>
<path fill="#069490" opacity="1.000000" stroke="none" 
	d="
M303.563843,279.999420 
	C301.778992,281.096649 299.761444,281.940155 298.245605,283.330627 
	C284.414215,296.018097 271.042114,309.237244 256.769073,321.401337 
	C247.342056,329.435486 236.903214,336.374664 226.470383,343.111908 
	C214.630051,350.758026 202.625031,358.289825 190.076920,364.660614 
	C176.978195,371.310883 163.351273,377.063690 149.584030,382.217102 
	C133.432022,388.263184 117.073845,393.957733 100.440155,398.454956 
	C87.041885,402.077423 73.041679,403.410095 59.414967,406.266418 
	C40.422310,410.247498 21.131187,409.941986 1.464225,411.000000 
	C1.000000,406.310760 1.000000,401.621490 1.468657,396.466125 
	C24.300192,396.898895 46.442280,394.510162 68.400223,390.747528 
	C98.001366,385.675201 126.674713,377.156189 154.401260,365.577057 
	C155.850632,364.971771 156.787994,363.140472 158.198883,361.525635 
	C162.502121,360.767517 166.606277,360.583527 170.632004,359.922150 
	C188.402863,357.002563 205.163895,351.240204 220.422089,341.526215 
	C239.089828,329.641602 252.191589,313.039856 261.530945,292.973389 
	C263.382294,292.301605 265.240875,292.022644 266.316132,290.954895 
	C275.312347,282.021057 284.130432,272.908173 293.077759,263.924530 
	C296.471466,260.517059 300.062897,257.306549 303.660034,254.465607 
	C303.691864,263.283081 303.627869,271.641266 303.563843,279.999420 
z"/>
<path fill="#069F8B" opacity="1.000000" stroke="none" 
	d="
M309.999878,362.058228 
	C304.992676,367.043488 300.469696,372.665771 294.894318,376.903534 
	C271.047729,395.029053 246.206451,411.699463 219.414917,425.231842 
	C191.445511,439.359131 162.742416,451.820557 132.224258,459.310394 
	C110.460655,464.651703 88.510315,469.343201 66.477654,473.432098 
	C54.776970,475.603546 42.739143,476.095490 30.824530,476.933746 
	C21.217999,477.609619 11.568011,477.667786 1.468651,478.000000 
	C1.000000,474.307098 1.000000,470.614166 1.465490,466.460632 
	C7.733780,465.669281 13.535228,465.083893 19.339621,465.053070 
	C41.518257,464.935364 63.353855,461.951385 85.122772,457.963379 
	C109.891624,453.425751 134.124451,447.009003 157.835587,438.561737 
	C183.110458,429.557312 207.302551,418.128113 230.671844,405.060944 
	C242.239319,398.592865 253.243729,391.048767 264.141571,383.471832 
	C274.756470,376.091644 284.854126,367.971191 295.307739,360.352600 
	C297.795074,358.539886 300.795959,357.431885 303.655945,356.424957 
	C303.866638,358.434509 303.982025,360.018890 304.098450,361.617950 
	C306.390320,361.788940 308.195099,361.923584 309.999878,362.058228 
z"/>
<path fill="#059390" opacity="1.000000" stroke="none" 
	d="
M418.531342,1.000000 
	C417.937195,18.839470 418.112823,36.863136 415.493927,54.471172 
	C412.314087,75.850533 406.772064,96.878250 402.274780,118.062943 
	C402.070007,119.027489 402.089050,120.039558 401.537537,121.501465 
	C390.713867,121.926231 380.356506,121.879021 369.999756,121.422318 
	C370.247437,119.216400 370.293457,117.364128 370.774475,115.632698 
	C373.705780,105.081223 377.469330,94.702454 379.589661,83.995636 
	C385.009308,56.628593 389.158600,29.064430 388.000000,1.000000 
	C398.020905,1.000000 408.041779,1.000000 418.531342,1.000000 
z"/>
<path fill="#059091" opacity="1.000000" stroke="none" 
	d="
M157.963715,361.879974 
	C156.787994,363.140472 155.850632,364.971771 154.401260,365.577057 
	C126.674713,377.156189 98.001366,385.675201 68.400223,390.747528 
	C46.442280,394.510162 24.300192,396.898895 1.468657,396.000000 
	C1.000000,385.979095 1.000000,375.958221 1.377608,365.541168 
	C13.477155,364.599854 25.203278,364.130066 36.919373,363.479645 
	C43.335960,363.123413 49.735607,362.462097 56.600666,361.895721 
	C90.693535,361.862061 124.328629,361.871033 157.963715,361.879974 
z"/>
<path fill="#08C17E" opacity="1.000000" stroke="none" 
	d="
M398.468628,501.000000 
	C398.675354,499.894836 399.133362,498.546082 400.058380,497.720673 
	C416.996307,482.606293 434.490479,468.073120 450.812286,452.323975 
	C463.648376,439.938202 475.059357,426.074615 487.088623,412.854065 
	C491.527008,407.976227 495.923309,403.060059 500.669373,398.080688 
	C501.000000,413.687561 501.000000,429.375122 500.665527,445.607788 
	C498.713654,447.530914 496.980347,448.795013 495.497070,450.304749 
	C482.260468,463.777649 469.064240,477.290222 455.865204,490.799988 
	C452.559723,494.183319 449.287476,497.599091 446.000000,501.000000 
	C430.312439,501.000000 414.624878,501.000000 398.468628,501.000000 
z"/>
<path fill="#048994" opacity="1.000000" stroke="none" 
	d="
M310.998993,121.831787 
	C312.899780,116.367554 315.177826,111.001579 316.631165,105.420822 
	C321.138367,88.113670 325.948212,70.847252 329.428375,53.324280 
	C331.706299,41.854717 331.939423,29.972778 332.974731,18.265486 
	C333.455902,12.824688 333.666656,7.359979 334.000000,1.453054 
	C342.687561,1.000000 351.375122,1.000000 360.531342,1.468470 
	C361.047455,21.252197 360.000885,40.486950 356.151398,59.461006 
	C353.645874,71.810814 351.009308,84.140884 348.076080,96.394745 
	C346.028595,104.948334 343.379486,113.357910 340.535248,121.902878 
	C330.380585,121.926552 320.689789,121.879173 310.998993,121.831787 
z"/>
<path fill="#0155A9" opacity="1.000000" stroke="none" 
	d="
M77.531342,1.000000 
	C78.232506,43.890388 42.571957,78.086273 1.455740,78.000000 
	C1.000000,65.979103 1.000000,53.958210 1.440910,41.468655 
	C23.438131,40.528679 41.348980,24.032305 41.000000,1.000000 
	C53.020893,1.000000 65.041786,1.000000 77.531342,1.000000 
z"/>
<path fill="#058E92" opacity="1.000000" stroke="none" 
	d="
M340.999115,121.831818 
	C343.379486,113.357910 346.028595,104.948334 348.076080,96.394745 
	C351.009308,84.140884 353.645874,71.810814 356.151398,59.461006 
	C360.000885,40.486950 361.047455,21.252197 361.000000,1.468470 
	C369.687561,1.000000 378.375122,1.000000 387.531342,1.000000 
	C389.158600,29.064430 385.009308,56.628593 379.589661,83.995636 
	C377.469330,94.702454 373.705780,105.081223 370.774475,115.632698 
	C370.293457,117.364128 370.247437,119.216400 369.535858,121.493286 
	C359.713928,121.926430 350.356537,121.879128 340.999115,121.831818 
z"/>
<path fill="#07B085" opacity="1.000000" stroke="none" 
	d="
M501.000000,272.531342 
	C499.726746,274.237976 498.129333,275.277618 497.231323,276.745209 
	C489.717316,289.024841 482.576355,301.539459 474.823364,313.663788 
	C469.489716,322.004669 463.413422,329.875549 457.556549,337.874115 
	C455.750488,340.340576 453.573792,342.535645 451.100830,344.472351 
	C450.634827,334.488007 450.634827,324.886322 450.634827,314.832916 
	C446.624329,314.832916 443.312134,314.832916 439.999939,314.832916 
	C443.190277,309.611176 446.145203,304.227356 449.610474,299.194916 
	C467.598663,273.071228 482.291290,245.147827 495.328918,216.300247 
	C496.872742,212.884399 498.669403,209.582840 500.674438,206.114151 
	C501.000000,228.020889 501.000000,250.041794 501.000000,272.531342 
z"/>
<path fill="#048297" opacity="1.000000" stroke="none" 
	d="
M1.000000,337.000000 
	C1.000000,319.312439 1.000000,301.624878 1.467274,283.468658 
	C6.569125,282.918335 11.240247,283.179413 15.831336,282.689911 
	C28.958134,281.290344 42.052425,279.585938 55.289810,278.454407 
	C55.343410,296.589447 55.266697,314.271393 54.764275,331.974243 
	C36.559040,333.663391 18.779520,335.331696 1.000000,337.000000 
z"/>
<path fill="#03799B" opacity="1.000000" stroke="none" 
	d="
M55.159500,278.001373 
	C42.052425,279.585938 28.958134,281.290344 15.831336,282.689911 
	C11.240247,283.179413 6.569125,282.918335 1.467274,283.000000 
	C1.000000,265.645782 1.000000,248.291550 1.389308,230.548401 
	C11.591539,229.587814 21.428768,229.276413 31.209795,228.363129 
	C39.227333,227.614502 47.177975,226.149490 55.288998,225.454865 
	C55.332981,243.272278 55.246243,260.636841 55.159500,278.001373 
z"/>
<path fill="#069E8C" opacity="1.000000" stroke="none" 
	d="
M303.560608,355.999756 
	C300.795959,357.431885 297.795074,358.539886 295.307739,360.352600 
	C284.854126,367.971191 274.756470,376.091644 264.141571,383.471832 
	C253.243729,391.048767 242.239319,398.592865 230.671844,405.060944 
	C207.302551,418.128113 183.110458,429.557312 157.835587,438.561737 
	C134.124451,447.009003 109.891624,453.425751 85.122772,457.963379 
	C63.353855,461.951385 41.518257,464.935364 19.339621,465.053070 
	C13.535228,465.083893 7.733780,465.669281 1.465490,466.000000 
	C1.000000,463.299988 1.000000,460.599976 1.000000,457.449982 
	C22.865583,457.993195 44.591568,455.860229 66.121284,452.699615 
	C91.632965,448.954498 117.021690,443.943329 141.282913,434.933075 
	C162.787766,426.946442 184.388550,418.929993 205.063705,409.073883 
	C228.478485,397.911774 250.724060,384.393372 271.261566,368.319305 
	C280.023895,361.461334 288.851166,354.685364 297.714539,347.958527 
	C299.273590,346.775299 301.157379,346.019989 303.321716,345.482941 
	C303.688354,349.265808 303.624481,352.632751 303.560608,355.999756 
z"/>
<path fill="#036F9E" opacity="1.000000" stroke="none" 
	d="
M55.158272,225.002014 
	C47.177975,226.149490 39.227333,227.614502 31.209795,228.363129 
	C21.428768,229.276413 11.591539,229.587814 1.389308,230.079742 
	C1.000000,214.645767 1.000000,199.291550 1.408188,183.383621 
	C4.108034,182.553436 6.396666,182.248322 8.691885,182.005508 
	C17.391891,181.085144 26.133303,180.454025 34.782883,179.191635 
	C41.633827,178.191757 48.373119,176.426865 55.293350,175.454407 
	C55.335896,192.272079 55.247082,208.637054 55.158272,225.002014 
z"/>
<path fill="#0267A1" opacity="1.000000" stroke="none" 
	d="
M55.161991,175.001694 
	C48.373119,176.426865 41.633827,178.191757 34.782883,179.191635 
	C26.133303,180.454025 17.391891,181.085144 8.691885,182.005508 
	C6.396666,182.248322 4.108034,182.553436 1.408188,182.914963 
	C1.000000,170.979111 1.000000,158.958206 1.000000,146.468658 
	C16.977425,145.708481 32.581779,143.272263 47.699322,137.961197 
	C49.876888,137.196167 52.142258,136.681076 54.894592,136.478394 
	C55.335461,149.604889 55.248726,162.303299 55.161991,175.001694 
z"/>
<path fill="#108F99" opacity="1.000000" stroke="none" 
	d="
M1.000000,337.468658 
	C18.779520,335.331696 36.559040,333.663391 54.900993,332.361389 
	C55.689919,342.464569 55.916409,352.201477 56.142895,361.938354 
	C49.735607,362.462097 43.335960,363.123413 36.919373,363.479645 
	C25.203278,364.130066 13.477155,364.599854 1.377608,365.072510 
	C1.000000,355.979095 1.000000,346.958221 1.000000,337.468658 
z"/>
<path fill="#09C77C" opacity="1.000000" stroke="none" 
	d="
M446.468628,501.000000 
	C449.287476,497.599091 452.559723,494.183319 455.865204,490.799988 
	C469.064240,477.290222 482.260468,463.777649 495.497070,450.304749 
	C496.980347,448.795013 498.713654,447.530914 500.665527,446.076477 
	C501.000000,464.260101 501.000000,482.520233 501.000000,501.000000 
	C482.979706,501.000000 464.958496,501.000000 446.468628,501.000000 
z"/>
<path fill="#004EAB" opacity="1.000000" stroke="none" 
	d="
M40.531342,1.000000 
	C41.348980,24.032305 23.438131,40.528679 1.440910,40.999996 
	C1.000000,27.740011 1.000000,14.480022 1.000000,1.000000 
	C14.020069,1.000000 27.041376,1.000000 40.531342,1.000000 
z"/>
<path fill="#FEFFFE" opacity="1.000000" stroke="none" 
	d="
M303.655945,356.424927 
	C303.624481,352.632751 303.688354,349.265808 303.656708,345.448975 
	C303.625092,338.638794 303.688965,332.278503 303.656860,325.458435 
	C303.625061,316.972015 303.689209,308.945374 303.657379,300.458710 
	C303.625763,293.638824 303.690125,287.278961 303.659180,280.459229 
	C303.627869,271.641266 303.691864,263.283081 303.755127,254.005127 
	C303.690979,238.386307 303.627563,223.687271 303.658508,208.529022 
	C303.689819,187.376938 303.626770,166.684067 303.563721,145.991196 
	C303.563721,138.130508 303.563721,130.269821 303.563721,121.974022 
	C306.226898,121.974022 308.162140,121.974022 310.548187,121.902908 
	C320.689789,121.879173 330.380585,121.926552 340.535248,121.902878 
	C350.356537,121.879128 359.713928,121.926430 369.535217,121.902771 
	C380.356506,121.879021 390.713867,121.926231 401.535156,121.902649 
	C414.356384,121.878876 426.713745,121.925903 439.535004,121.902313 
	C443.316284,121.831696 446.633698,121.831696 450.256897,121.831696 
	C450.256897,137.554153 450.256897,152.811874 450.256897,168.873627 
	C439.743652,168.873627 429.332794,168.873627 418.000031,168.875153 
	C398.829102,168.876663 380.580109,168.876663 362.328400,168.876663 
	C362.328400,185.291962 362.328400,201.039078 362.328400,216.942429 
	C374.079803,216.942429 385.539642,216.942429 396.999481,216.942429 
	C411.134338,216.942429 425.269226,216.942429 440.233612,216.942429 
	C440.233612,221.374084 440.233612,225.292603 440.325989,229.611160 
	C440.418335,240.568527 440.418335,251.125854 440.418335,262.207794 
	C437.778412,262.207794 435.841156,262.207794 432.992401,262.209656 
	C421.388428,262.272278 410.695892,262.333008 399.542419,262.302734 
	C386.859375,262.211792 374.637299,262.211792 362.215942,262.211792 
	C362.215942,278.870789 362.215942,294.935913 362.140320,311.374969 
	C362.113922,312.506897 362.163147,313.264923 362.173248,314.266846 
	C362.134125,314.510773 362.480225,314.863281 362.480225,314.863281 
	C362.480225,314.863281 362.971466,314.811005 363.435791,314.891541 
	C375.599884,314.925842 387.299652,314.879578 398.999390,314.833313 
	C412.356934,314.880432 425.714508,314.927521 439.536011,314.903748 
	C443.312134,314.832916 446.624329,314.832916 450.634827,314.832916 
	C450.634827,324.886322 450.634827,334.488007 450.755127,344.545166 
	C450.875397,350.399078 450.875397,355.797546 450.875397,361.877808 
	C446.694305,361.877808 443.296631,361.877808 439.449402,361.968506 
	C429.973846,361.998718 420.947815,361.938263 411.460815,361.968689 
	C398.973785,361.998444 386.947693,361.937317 374.460693,361.967468 
	C362.640442,361.997955 351.281067,361.937195 339.460815,361.967590 
	C329.640472,361.997772 320.281097,361.936768 310.460785,361.966980 
	C308.195099,361.923584 306.390320,361.788940 304.098450,361.617950 
	C303.982025,360.018890 303.866638,358.434509 303.655945,356.424927 
z"/>
<path fill="#06988F" opacity="1.000000" stroke="none" 
	d="
M397.025146,216.575424 
	C385.539642,216.942429 374.079803,216.942429 362.328400,216.942429 
	C362.328400,201.039078 362.328400,185.291962 362.328400,168.876663 
	C380.580109,168.876663 398.829102,168.876663 417.539246,168.966919 
	C411.726990,183.117081 405.451111,197.175888 399.183350,211.238312 
	C398.449554,212.884781 397.760559,214.551239 397.025146,216.575424 
z"/>
<path fill="#07A48A" opacity="1.000000" stroke="none" 
	d="
M362.212341,314.022919 
	C362.163147,313.264923 362.113922,312.506897 362.486237,311.346069 
	C364.523163,309.877380 366.536743,309.131104 367.689850,307.694275 
	C375.536713,297.916656 383.415100,288.149902 390.834229,278.049744 
	C394.395355,273.201843 396.977753,267.634979 400.003387,262.393707 
	C410.695892,262.333008 421.388428,262.272278 432.542053,262.301849 
	C430.173920,267.588409 427.741028,273.053589 424.435425,277.926788 
	C416.815063,289.160950 408.764160,300.102936 400.910400,311.179382 
	C400.244476,312.118591 399.746613,313.176941 399.085022,314.506622 
	C387.299652,314.879578 375.599884,314.925842 363.324341,314.746246 
	C362.588440,314.334534 362.409698,314.168701 362.212341,314.022919 
z"/>
<path fill="#FEFEFF" opacity="1.000000" stroke="none" 
	d="
M56.600666,361.895721 
	C55.916409,352.201477 55.689919,342.464569 55.326706,332.340515 
	C55.266697,314.271393 55.343410,296.589447 55.289810,278.454407 
	C55.246243,260.636841 55.332981,243.272278 55.288994,225.454880 
	C55.247082,208.637054 55.335896,192.272079 55.293350,175.454407 
	C55.248726,162.303299 55.335461,149.604889 55.291000,136.453705 
	C55.159805,131.544495 55.159805,127.088051 55.159805,121.975029 
	C65.592087,121.975029 75.331528,121.975029 85.534721,121.903473 
	C102.355873,121.879478 118.713272,121.927032 135.534454,121.903336 
	C150.355103,122.977974 164.711975,124.123848 179.492874,125.267380 
	C192.338364,130.222153 204.759842,135.179291 217.532028,140.233932 
	C228.885803,147.764557 239.111984,156.058182 247.439667,166.934479 
	C253.405975,178.192963 259.093140,189.280853 264.982727,201.063385 
	C269.503815,215.508911 270.779572,229.689484 271.066101,244.442444 
	C270.611267,261.515503 267.417694,277.568787 261.175079,293.000549 
	C252.191589,313.039856 239.089828,329.641602 220.422089,341.526215 
	C205.163895,351.240204 188.402863,357.002563 170.632004,359.922150 
	C166.606277,360.583527 162.502121,360.767517 158.198898,361.525635 
	C124.328629,361.871033 90.693535,361.862061 56.600666,361.895721 
M168.260071,175.841202 
	C150.500061,170.510880 132.317276,172.232056 114.112320,172.030380 
	C114.112320,187.399628 114.112320,202.198929 113.946342,217.922852 
	C114.001564,229.281540 114.056786,240.640228 113.946381,252.923477 
	C114.001610,262.948730 114.056839,272.973999 113.946899,283.923889 
	C113.946899,292.945557 113.946899,301.967224 113.946899,310.944092 
	C116.386734,310.944092 118.192917,310.944092 120.920494,311.129608 
	C134.977371,310.420441 149.274033,311.092743 163.039261,308.703430 
	C188.638611,304.259949 207.909119,282.400116 210.187164,257.150330 
	C210.152725,255.990402 209.890594,254.783386 210.119247,253.677872 
	C212.296280,243.152328 211.764282,232.709015 209.386948,221.550751 
	C207.542160,216.119492 206.155869,210.469299 203.701645,205.329025 
	C201.871017,201.494827 198.660095,198.319687 196.012161,194.161850 
	C189.086838,185.044693 179.771347,179.518799 168.260071,175.841202 
z"/>
<path fill="#048994" opacity="1.000000" stroke="none" 
	d="
M271.149597,243.997940 
	C270.779572,229.689484 269.503815,215.508911 265.187256,201.377716 
	C268.698181,197.135483 272.898590,193.699142 275.586243,189.331833 
	C283.656067,176.218826 291.088257,162.714630 298.914307,149.448654 
	C299.750183,148.031754 301.540680,147.177994 303.226013,146.027100 
	C303.626770,166.684067 303.689819,187.376938 303.308105,208.539749 
	C301.407043,209.937943 299.564240,210.561935 298.555939,211.842819 
	C290.850189,221.631744 283.365204,231.594604 275.642090,241.369507 
	C274.640350,242.637360 272.670837,243.140549 271.149597,243.997940 
z"/>
<path fill="#069092" opacity="1.000000" stroke="none" 
	d="
M271.066101,244.442444 
	C272.670837,243.140549 274.640350,242.637360 275.642090,241.369507 
	C283.365204,231.594604 290.850189,221.631744 298.555939,211.842819 
	C299.564240,210.561935 301.407043,209.937943 303.213745,208.998962 
	C303.627563,223.687271 303.690979,238.386307 303.659302,253.545807 
	C300.062897,257.306549 296.471466,260.517059 293.077759,263.924530 
	C284.130432,272.908173 275.312347,282.021057 266.316132,290.954895 
	C265.240875,292.022644 263.382294,292.301605 261.530945,292.973389 
	C267.417694,277.568787 270.611267,261.515503 271.066101,244.442444 
z"/>
<path fill="#069F8B" opacity="1.000000" stroke="none" 
	d="
M399.542419,262.302734 
	C396.977753,267.634979 394.395355,273.201843 390.834229,278.049744 
	C383.415100,288.149902 375.536713,297.916656 367.689850,307.694275 
	C366.536743,309.131104 364.523163,309.877380 362.561859,310.972107 
	C362.215942,294.935913 362.215942,278.870789 362.215942,262.211792 
	C374.637299,262.211792 386.859375,262.211792 399.542419,262.302734 
z"/>
<path fill="#08A988" opacity="1.000000" stroke="none" 
	d="
M362.173218,314.266846 
	C362.409698,314.168701 362.588440,314.334534 362.860016,314.665710 
	C362.971466,314.811005 362.480225,314.863281 362.480225,314.863281 
	C362.480225,314.863281 362.134125,314.510773 362.173218,314.266846 
z"/>
<path fill="#047F98" opacity="1.000000" stroke="none" 
	d="
M114.112076,282.999268 
	C114.056839,272.973999 114.001610,262.948730 114.378860,252.382935 
	C120.491585,249.147858 126.458305,246.922241 131.793488,243.662872 
	C143.525650,236.495468 155.423080,229.443207 166.343018,221.146225 
	C176.846207,213.165909 186.203217,203.677063 196.063843,194.851044 
	C198.660095,198.319687 201.871017,201.494827 203.701645,205.329025 
	C206.155869,210.469299 207.542160,216.119492 209.174713,222.265823 
	C201.259399,229.795181 194.190109,237.557159 185.718597,243.222321 
	C169.141846,254.307755 151.940948,264.497101 134.664703,274.479858 
	C128.298508,278.158447 120.990509,280.207153 114.112076,282.999268 
z"/>
<path fill="#048496" opacity="1.000000" stroke="none" 
	d="
M114.029488,283.461609 
	C120.990509,280.207153 128.298508,278.158447 134.664703,274.479858 
	C151.940948,264.497101 169.141846,254.307755 185.718597,243.222321 
	C194.190109,237.557159 201.259399,229.795181 209.158005,222.642426 
	C211.764282,232.709015 212.296280,243.152328 210.119247,253.677872 
	C209.890594,254.783386 210.152725,255.990402 209.723633,257.646973 
	C204.504089,261.430817 199.682434,264.627472 195.003326,268.020691 
	C173.403824,283.684174 150.162109,296.342041 125.491867,306.464905 
	C123.400436,307.323090 121.818016,309.421753 119.999100,310.944092 
	C118.192917,310.944092 116.386734,310.944092 113.946899,310.944092 
	C113.946899,301.967224 113.946899,292.945557 114.029488,283.461609 
z"/>
<path fill="#047A9A" opacity="1.000000" stroke="none" 
	d="
M196.037994,194.506439 
	C186.203217,203.677063 176.846207,213.165909 166.343018,221.146225 
	C155.423080,229.443207 143.525650,236.495468 131.793488,243.662872 
	C126.458305,246.922241 120.491585,249.147858 114.461670,251.920654 
	C114.056786,240.640228 114.001564,229.281540 114.370560,217.385651 
	C134.005310,207.236328 151.364807,195.024490 166.592514,179.846115 
	C167.605331,178.836578 168.205994,177.413528 168.998367,176.182816 
	C179.771347,179.518799 189.086838,185.044693 196.037994,194.506439 
z"/>
<path fill="#068995" opacity="1.000000" stroke="none" 
	d="
M120.459801,311.036865 
	C121.818016,309.421753 123.400436,307.323090 125.491867,306.464905 
	C150.162109,296.342041 173.403824,283.684174 195.003326,268.020691 
	C199.682434,264.627472 204.504089,261.430817 209.602875,258.071472 
	C207.909119,282.400116 188.638611,304.259949 163.039261,308.703430 
	C149.274033,311.092743 134.977371,310.420441 120.459801,311.036865 
z"/>
<path fill="#03749D" opacity="1.000000" stroke="none" 
	d="
M168.629211,176.012009 
	C168.205994,177.413528 167.605331,178.836578 166.592514,179.846115 
	C151.364807,195.024490 134.005310,207.236328 114.453552,216.923340 
	C114.112320,202.198929 114.112320,187.399628 114.112320,172.030380 
	C132.317276,172.232056 150.500061,170.510880 168.629211,176.012009 
z"/>
</svg>