<svg version="1.1" id="Layer_1" xmlns="http://www.w3.org/2000/svg" xmlns:xlink="http://www.w3.org/1999/xlink" x="0px" y="0px"
	 width="100%" viewBox="0 0 1920 588" enable-background="new 0 0 1920 588" xml:space="preserve">
<path fill="#FFFFFF" opacity="1.000000" stroke="none" 
	d="
M1686.000000,589.000000 
	C1124.333496,589.000000 562.666931,589.000000 1.000301,589.000000 
	C1.000201,393.000183 1.000201,197.000366 1.000100,1.000271 
	C639.499695,1.000000 1277.999390,0.999314 1916.499023,1.041167 
	C1917.999390,1.041265 1919.499634,1.666657 1920.567871,2.657680 
	C1917.424683,3.475580 1914.713501,3.635792 1911.552734,3.657965 
	C1901.057373,3.620409 1891.011597,3.720891 1880.524170,3.674269 
	C1870.395386,3.624151 1860.708252,3.721135 1850.572754,3.672094 
	C1840.422852,3.623939 1830.721191,3.721809 1820.571045,3.674872 
	C1809.402588,3.626125 1798.682495,3.722186 1787.520142,3.673519 
	C1776.724243,3.626108 1766.370728,3.723424 1755.568481,3.677216 
	C1745.085327,3.629674 1735.051025,3.725658 1724.567871,3.678275 
	C1710.790039,3.534909 1697.460815,3.534909 1684.081299,3.534909 
	C1684.081299,17.857176 1684.081299,31.427658 1683.990479,45.459290 
	C1683.960083,55.612938 1684.020508,65.305435 1683.990723,75.459183 
	C1683.960327,85.613007 1684.020264,95.305573 1683.990723,105.459572 
	C1683.960571,115.280190 1684.019897,124.639366 1683.990479,134.460068 
	C1683.960815,147.280502 1684.020142,159.639435 1683.991089,172.459915 
	C1683.962158,185.947250 1684.021484,198.973022 1683.993164,212.460449 
	C1683.905640,222.348419 1683.905640,231.774750 1683.905640,241.410248 
	C1706.260254,241.410248 1728.134033,241.410248 1750.458008,241.539673 
	C1763.179688,241.690338 1775.451050,241.762558 1787.722290,241.719086 
	C1801.142822,241.671524 1814.563232,241.516953 1828.437744,241.536118 
	C1849.241943,241.603668 1869.592041,241.544113 1890.400146,241.607635 
	C1900.905396,241.820465 1910.952759,241.910233 1921.000000,242.000000 
	C1921.000000,357.582916 1921.000000,473.165863 1921.000000,589.000000 
	C1849.302612,589.000000 1777.604858,589.000000 1705.606445,588.613281 
	C1714.551758,587.333801 1723.629150,585.781250 1732.227905,581.726318 
	C1728.598389,569.084473 1725.076904,556.803284 1721.534912,544.528015 
	C1721.355103,543.904663 1720.998779,543.332214 1720.748657,542.788330 
	C1715.941772,543.700012 1711.295288,544.819275 1706.583130,545.434265 
	C1684.400024,548.329224 1665.357178,536.435303 1659.485474,515.161438 
	C1657.257446,507.088623 1656.305176,498.437256 1656.228149,490.036224 
	C1655.888550,453.050323 1656.078125,416.059570 1656.089111,379.070557 
	C1656.089600,377.629089 1656.224487,376.187714 1656.320923,374.261536 
	C1676.421143,374.261536 1696.144531,374.261536 1715.842163,374.261536 
	C1715.842163,360.807739 1715.842163,347.862335 1715.842163,334.414734 
	C1695.901123,334.414734 1676.169067,334.414734 1656.025146,334.414734 
	C1656.025146,307.000854 1656.025146,280.087921 1656.025146,253.107239 
	C1643.372681,253.107239 1631.142212,253.107239 1618.599976,253.107239 
	C1616.763184,280.361023 1614.943237,307.365570 1613.096069,334.773315 
	C1601.018677,334.773315 1589.614258,334.773315 1578.256104,334.773315 
	C1578.256104,348.174591 1578.256104,361.116333 1578.256104,374.500763 
	C1589.405151,374.500763 1600.346436,374.500763 1611.806519,374.500763 
	C1611.806519,376.723999 1611.806641,378.517365 1611.806641,380.310760 
	C1611.806763,416.300049 1611.642944,452.290588 1611.909302,488.277893 
	C1611.986572,498.728790 1612.571777,509.282593 1614.170166,519.596130 
	C1619.701782,555.289124 1641.178467,578.402527 1675.650146,586.648438 
	C1679.090698,587.471436 1682.549561,588.217957 1686.000000,589.000000 
M1205.563477,584.838257 
	C1218.183838,584.838257 1230.804199,584.838257 1243.900757,584.838257 
	C1243.900757,582.579590 1243.900879,580.793152 1243.900879,579.006714 
	C1243.900879,549.007935 1243.824219,519.008545 1244.034302,489.011230 
	C1244.052734,486.380615 1245.310791,483.184540 1247.077026,481.231262 
	C1261.157593,465.659821 1275.495972,450.321442 1289.771973,434.927063 
	C1290.607910,434.025543 1291.588135,433.257782 1292.615967,432.323395 
	C1293.851440,434.130188 1294.894775,435.630127 1295.911987,437.147491 
	C1328.051514,485.091461 1360.174805,533.046265 1392.385498,580.942322 
	C1393.461792,582.542969 1395.401367,584.644470 1396.967041,584.668640 
	C1414.229980,584.935364 1431.498779,584.836243 1449.847900,584.836243 
	C1406.975098,519.291748 1364.620239,454.538910 1322.235962,389.741089 
	C1361.016968,344.120422 1399.546143,298.796021 1438.620483,252.830322 
	C1422.340942,252.830322 1407.174438,253.144745 1392.032837,252.670090 
	C1386.260376,252.489136 1382.642456,254.407272 1378.960083,258.632355 
	C1335.392578,308.619324 1291.651001,358.454620 1247.950195,408.325317 
	C1246.844482,409.587097 1245.681519,410.798767 1243.719849,412.930969 
	C1243.719849,358.735291 1243.719849,305.968658 1243.719849,253.124283 
	C1228.007812,253.124283 1212.621948,253.124283 1197.318970,253.124283 
	C1197.318970,363.810516 1197.318970,474.202454 1197.318970,584.838257 
	C1199.964233,584.838257 1202.275513,584.838257 1205.563477,584.838257 
M733.959717,450.500000 
	C733.959717,411.933136 733.959717,373.366272 733.959717,334.692413 
	C720.014099,334.692413 706.734070,334.692413 693.100037,334.692413 
	C692.313599,351.721405 691.535583,368.567902 690.752136,385.532288 
	C690.171753,385.285583 689.793884,385.247467 689.660339,385.046814 
	C689.110046,384.219879 688.614380,383.354462 688.133545,382.483887 
	C677.412720,363.073944 661.290466,349.247864 641.316833,340.655518 
	C600.806519,323.228638 562.056946,328.559418 527.504517,355.134735 
	C485.713348,387.277618 469.965973,430.883698 477.985352,482.714020 
	C486.554077,538.095032 533.981445,583.360168 587.680847,587.402100 
	C618.250977,589.703125 645.000916,581.345276 667.828796,561.305481 
	C676.059692,554.079834 682.697021,545.038818 690.745056,536.063965 
	C691.556091,552.333191 692.362549,568.510620 693.164001,584.587830 
	C707.015930,584.587830 720.278931,584.587830 733.959717,584.587830 
	C733.959717,540.058838 733.959717,495.779419 733.959717,450.500000 
M908.085388,474.499969 
	C908.085388,511.226044 908.085388,547.952148 908.085388,584.500610 
	C923.295471,584.500610 937.693542,584.500610 952.429871,584.500610 
	C952.429871,582.358704 952.429871,580.544434 952.429871,578.730164 
	C952.429749,539.409790 952.067200,500.084106 952.640503,460.772095 
	C952.823242,448.243561 954.040649,435.355072 957.325745,423.325195 
	C964.070374,398.626251 979.702881,381.899994 1005.693787,376.333099 
	C1038.139893,369.383575 1068.071777,385.035767 1080.644287,415.615051 
	C1086.447754,429.730621 1088.007080,444.535614 1088.012817,459.604401 
	C1088.027588,499.424622 1088.018188,539.244812 1088.018311,579.065063 
	C1088.018433,580.849243 1088.018311,582.633484 1088.018311,584.624390 
	C1102.910645,584.624390 1117.321533,584.624390 1132.004272,584.624390 
	C1132.101318,583.149841 1132.259521,581.865662 1132.259888,580.581482 
	C1132.271240,539.761597 1132.244751,498.941681 1132.276245,458.121826 
	C1132.290039,440.231049 1130.878662,422.486084 1125.787231,405.273773 
	C1114.872925,368.376404 1093.102173,341.941345 1053.897705,333.570343 
	C1013.775513,325.003357 976.064392,337.316803 953.554871,375.272491 
	C953.061707,376.104034 952.263062,376.754364 951.315125,377.816040 
	C950.549927,363.022736 949.820618,348.921692 949.089539,334.788025 
	C935.197266,334.788025 921.768860,334.788025 908.085388,334.788025 
	C908.085388,381.223785 908.085388,427.361847 908.085388,474.499969 
M114.189735,573.470215 
	C114.189735,577.094543 114.189735,580.718872 114.189735,584.536499 
	C130.057541,584.536499 145.436813,584.536499 161.262863,584.536499 
	C161.262863,488.840912 161.262863,393.446930 161.262863,297.634155 
	C195.129105,297.634155 228.549118,297.634155 261.880676,297.634155 
	C261.880676,282.476990 261.880676,267.743073 261.880676,253.131622 
	C178.632751,253.131622 95.727905,253.131622 13.015410,253.131622 
	C13.015410,268.152100 13.015410,282.867584 13.015410,298.066284 
	C46.970123,298.066284 80.523590,298.066284 114.189735,298.066284 
	C114.189735,389.866852 114.189735,481.173523 114.189735,573.470215 
M441.926392,359.406616 
	C443.639984,351.182281 445.353577,342.957977 447.143555,334.367126 
	C406.935028,330.063019 372.461517,338.205994 348.703827,374.887787 
	C347.747192,360.842621 346.859131,347.804352 345.985870,334.983154 
	C332.056915,334.983154 318.659882,334.983154 305.368347,334.983154 
	C305.368347,418.498535 305.368347,501.547424 305.368347,584.542969 
	C320.136932,584.542969 334.558105,584.542969 349.284607,584.542969 
	C349.284607,582.432068 349.284576,580.615295 349.284576,578.798462 
	C349.284485,543.137329 348.844452,507.468018 349.505219,471.819092 
	C349.762329,457.945862 351.100220,443.774078 354.403046,430.342499 
	C361.195435,402.720154 379.652313,385.543304 407.239227,379.092773 
	C417.131775,376.779633 427.589142,376.882019 438.304047,375.831451 
	C439.323364,371.255554 440.550598,365.746246 441.926392,359.406616 
M1491.142578,483.499939 
	C1491.142578,517.227966 1491.142578,550.955994 1491.142578,584.521484 
	C1506.382080,584.521484 1520.794067,584.521484 1535.347412,584.521484 
	C1535.347412,501.138611 1535.347412,418.081970 1535.347412,334.790436 
	C1520.535034,334.790436 1505.975708,334.790436 1491.142578,334.790436 
	C1491.142578,384.235840 1491.142578,433.367889 1491.142578,483.499939 
M843.216003,474.500122 
	C843.216003,427.916748 843.216003,381.333405 843.216003,334.714233 
	C828.192505,334.714233 813.775635,334.714233 799.286011,334.714233 
	C799.286011,418.124420 799.286011,501.319183 799.286011,584.582642 
	C813.983704,584.582642 828.392944,584.582642 843.216003,584.582642 
	C843.216003,548.054077 843.216003,511.777130 843.216003,474.500122 
M796.104126,268.799469 
	C795.482239,270.510284 794.747009,272.189301 794.256348,273.937012 
	C790.360901,287.812256 799.256104,303.669922 813.216492,307.810303 
	C827.617188,312.081329 842.968079,303.977814 847.370850,289.780701 
	C851.797241,275.507507 845.239319,260.878052 831.806946,255.060913 
	C818.927429,249.483200 804.171509,254.943863 796.104126,268.799469 
M1506.664795,308.066498 
	C1518.911377,310.943756 1528.720215,307.028381 1535.911621,296.962402 
	C1542.761353,287.374695 1543.143433,276.988678 1537.213501,266.959961 
	C1531.316406,256.986786 1522.206055,252.058533 1510.406616,253.229172 
	C1498.143555,254.445816 1487.427002,264.849091 1485.939453,276.655731 
	C1484.128784,291.024963 1491.695312,302.901947 1506.664795,308.066498 
z"/>
<path fill="#010101" opacity="1.000000" stroke="none" 
	d="
M1686.468262,589.000000 
	C1682.549561,588.217957 1679.090698,587.471436 1675.650146,586.648438 
	C1641.178467,578.402527 1619.701782,555.289124 1614.170166,519.596130 
	C1612.571777,509.282593 1611.986572,498.728790 1611.909302,488.277893 
	C1611.642944,452.290588 1611.806763,416.300049 1611.806641,380.310760 
	C1611.806641,378.517365 1611.806519,376.723999 1611.806519,374.500763 
	C1600.346436,374.500763 1589.405151,374.500763 1578.256104,374.500763 
	C1578.256104,361.116333 1578.256104,348.174591 1578.256104,334.773315 
	C1589.614258,334.773315 1601.018677,334.773315 1613.096069,334.773315 
	C1614.943237,307.365570 1616.763184,280.361023 1618.599976,253.107239 
	C1631.142212,253.107239 1643.372681,253.107239 1656.025146,253.107239 
	C1656.025146,280.087921 1656.025146,307.000854 1656.025146,334.414734 
	C1676.169067,334.414734 1695.901123,334.414734 1715.842163,334.414734 
	C1715.842163,347.862335 1715.842163,360.807739 1715.842163,374.261536 
	C1696.144531,374.261536 1676.421143,374.261536 1656.320923,374.261536 
	C1656.224487,376.187714 1656.089600,377.629089 1656.089111,379.070557 
	C1656.078125,416.059570 1655.888550,453.050323 1656.228149,490.036224 
	C1656.305176,498.437256 1657.257446,507.088623 1659.485474,515.161438 
	C1665.357178,536.435303 1684.400024,548.329224 1706.583130,545.434265 
	C1711.295288,544.819275 1715.941772,543.700012 1720.748657,542.788330 
	C1720.998779,543.332214 1721.355103,543.904663 1721.534912,544.528015 
	C1725.076904,556.803284 1728.598389,569.084473 1732.227905,581.726318 
	C1723.629150,585.781250 1714.551758,587.333801 1705.152832,588.613281 
	C1698.978882,589.000000 1692.957642,589.000000 1686.468262,589.000000 
z"/>
<path fill="#09AF86" opacity="1.000000" stroke="none" 
	d="
M1827.983643,241.408997 
	C1814.563232,241.516953 1801.142822,241.671524 1787.722290,241.719086 
	C1775.451050,241.762558 1763.179688,241.690338 1750.473877,241.201508 
	C1752.072266,239.529648 1753.963501,237.866074 1756.158936,237.190506 
	C1786.017212,228.002365 1812.985596,213.384628 1837.363647,193.970154 
	C1841.286987,190.845810 1844.470947,186.792999 1848.460693,183.097748 
	C1858.296631,183.026108 1867.668579,183.026108 1877.451782,183.026108 
	C1877.451782,173.198196 1877.451782,164.101593 1877.766113,154.943695 
	C1879.980835,153.056946 1882.264282,151.493805 1883.722290,149.365280 
	C1897.431152,129.351379 1909.415649,108.428673 1917.145386,85.272186 
	C1917.802124,83.305092 1919.686279,81.747749 1921.000000,80.000015 
	C1921.000000,102.354225 1921.000000,124.708458 1920.649292,147.569305 
	C1919.406372,148.975342 1918.408813,149.792892 1917.637817,150.786285 
	C1906.100708,165.650574 1895.404907,181.266571 1882.868164,195.230591 
	C1868.147339,211.627335 1850.588867,225.041565 1831.870117,236.813187 
	C1830.251343,237.831192 1829.264160,239.853271 1827.983643,241.408997 
z"/>
<path fill="#08BA81" opacity="1.000000" stroke="none" 
	d="
M1828.437744,241.536102 
	C1829.264160,239.853271 1830.251343,237.831192 1831.870117,236.813187 
	C1850.588867,225.041565 1868.147339,211.627335 1882.868164,195.230591 
	C1895.404907,181.266571 1906.100708,165.650574 1917.637817,150.786285 
	C1918.408813,149.792892 1919.406372,148.975342 1920.649292,148.037964 
	C1921.000000,168.354233 1921.000000,188.708450 1920.654785,209.571014 
	C1918.951660,211.248413 1917.495239,212.322021 1916.252563,213.602905 
	C1910.382568,219.653122 1904.546143,225.736389 1898.749023,231.856430 
	C1895.758301,235.013611 1892.874268,238.271942 1889.942017,241.484589 
	C1869.592041,241.544113 1849.241943,241.603668 1828.437744,241.536102 
z"/>
<path fill="#10A78E" opacity="1.000000" stroke="none" 
	d="
M1921.000000,79.531357 
	C1919.686279,81.747749 1917.802124,83.305092 1917.145386,85.272186 
	C1909.415649,108.428673 1897.431152,129.351379 1883.722290,149.365280 
	C1882.264282,151.493805 1879.980835,153.056946 1877.664429,154.484741 
	C1877.318237,142.721756 1877.387939,131.356461 1877.802490,119.979698 
	C1879.215698,119.071175 1880.685547,118.385277 1881.286377,117.242531 
	C1884.916382,110.338364 1888.535767,103.416924 1891.812378,96.340889 
	C1905.398193,67.002136 1911.489136,36.000824 1912.002441,3.796003 
	C1914.713501,3.635792 1917.424683,3.475580 1920.567871,3.157685 
	C1921.000000,28.354227 1921.000000,53.708454 1921.000000,79.531357 
z"/>
<path fill="#1EC789" opacity="1.000000" stroke="none" 
	d="
M1890.400146,241.607635 
	C1892.874268,238.271942 1895.758301,235.013611 1898.749023,231.856430 
	C1904.546143,225.736389 1910.382568,219.653122 1916.252563,213.602905 
	C1917.495239,212.322021 1918.951660,211.248413 1920.654785,210.039673 
	C1921.000000,220.354233 1921.000000,230.708450 1921.000000,241.531342 
	C1910.952759,241.910233 1900.905396,241.820465 1890.400146,241.607635 
z"/>
<path fill="#010101" opacity="1.000000" stroke="none" 
	d="
M1205.075073,584.838257 
	C1202.275513,584.838257 1199.964233,584.838257 1197.318970,584.838257 
	C1197.318970,474.202454 1197.318970,363.810516 1197.318970,253.124283 
	C1212.621948,253.124283 1228.007812,253.124283 1243.719849,253.124283 
	C1243.719849,305.968658 1243.719849,358.735291 1243.719849,412.930969 
	C1245.681519,410.798767 1246.844482,409.587097 1247.950195,408.325317 
	C1291.651001,358.454620 1335.392578,308.619324 1378.960083,258.632355 
	C1382.642456,254.407272 1386.260376,252.489136 1392.032837,252.670090 
	C1407.174438,253.144745 1422.340942,252.830322 1438.620483,252.830322 
	C1399.546143,298.796021 1361.016968,344.120422 1322.235962,389.741089 
	C1364.620239,454.538910 1406.975098,519.291748 1449.847900,584.836243 
	C1431.498779,584.836243 1414.229980,584.935364 1396.967041,584.668640 
	C1395.401367,584.644470 1393.461792,582.542969 1392.385498,580.942322 
	C1360.174805,533.046265 1328.051514,485.091461 1295.911987,437.147491 
	C1294.894775,435.630127 1293.851440,434.130188 1292.615967,432.323395 
	C1291.588135,433.257782 1290.607910,434.025543 1289.771973,434.927063 
	C1275.495972,450.321442 1261.157593,465.659821 1247.077026,481.231262 
	C1245.310791,483.184540 1244.052734,486.380615 1244.034302,489.011230 
	C1243.824219,519.008545 1243.900879,549.007935 1243.900879,579.006714 
	C1243.900879,580.793152 1243.900757,582.579590 1243.900757,584.838257 
	C1230.804199,584.838257 1218.183838,584.838257 1205.075073,584.838257 
z"/>
<path fill="#010101" opacity="1.000000" stroke="none" 
	d="
M733.959717,451.000000 
	C733.959717,495.779419 733.959717,540.058838 733.959717,584.587830 
	C720.278931,584.587830 707.015930,584.587830 693.164001,584.587830 
	C692.362549,568.510620 691.556091,552.333191 690.745056,536.063965 
	C682.697021,545.038818 676.059692,554.079834 667.828796,561.305481 
	C645.000916,581.345276 618.250977,589.703125 587.680847,587.402100 
	C533.981445,583.360168 486.554077,538.095032 477.985352,482.714020 
	C469.965973,430.883698 485.713348,387.277618 527.504517,355.134735 
	C562.056946,328.559418 600.806519,323.228638 641.316833,340.655518 
	C661.290466,349.247864 677.412720,363.073944 688.133545,382.483887 
	C688.614380,383.354462 689.110046,384.219879 689.660339,385.046814 
	C689.793884,385.247467 690.171753,385.285583 690.752136,385.532288 
	C691.535583,368.567902 692.313599,351.721405 693.100037,334.692413 
	C706.734070,334.692413 720.014099,334.692413 733.959717,334.692413 
	C733.959717,373.366272 733.959717,411.933136 733.959717,451.000000 
M683.794922,428.840729 
	C671.714172,400.772827 651.074341,382.755646 620.984680,376.556519 
	C575.963135,367.281006 534.171509,396.201447 523.285522,438.650818 
	C513.953369,475.041229 528.151978,509.397980 559.773376,530.570984 
	C589.136536,550.231934 632.733154,547.375244 659.301208,524.049316 
	C687.481262,499.308136 696.470459,464.916046 683.794922,428.840729 
z"/>
<path fill="#010101" opacity="1.000000" stroke="none" 
	d="
M908.085388,473.999939 
	C908.085388,427.361847 908.085388,381.223785 908.085388,334.788025 
	C921.768860,334.788025 935.197266,334.788025 949.089539,334.788025 
	C949.820618,348.921692 950.549927,363.022736 951.315125,377.816040 
	C952.263062,376.754364 953.061707,376.104034 953.554871,375.272491 
	C976.064392,337.316803 1013.775513,325.003357 1053.897705,333.570343 
	C1093.102173,341.941345 1114.872925,368.376404 1125.787231,405.273773 
	C1130.878662,422.486084 1132.290039,440.231049 1132.276245,458.121826 
	C1132.244751,498.941681 1132.271240,539.761597 1132.259888,580.581482 
	C1132.259521,581.865662 1132.101318,583.149841 1132.004272,584.624390 
	C1117.321533,584.624390 1102.910645,584.624390 1088.018311,584.624390 
	C1088.018311,582.633484 1088.018433,580.849243 1088.018311,579.065063 
	C1088.018188,539.244812 1088.027588,499.424622 1088.012817,459.604401 
	C1088.007080,444.535614 1086.447754,429.730621 1080.644287,415.615051 
	C1068.071777,385.035767 1038.139893,369.383575 1005.693787,376.333099 
	C979.702881,381.899994 964.070374,398.626251 957.325745,423.325195 
	C954.040649,435.355072 952.823242,448.243561 952.640503,460.772095 
	C952.067200,500.084106 952.429749,539.409790 952.429871,578.730164 
	C952.429871,580.544434 952.429871,582.358704 952.429871,584.500610 
	C937.693542,584.500610 923.295471,584.500610 908.085388,584.500610 
	C908.085388,547.952148 908.085388,511.226044 908.085388,473.999939 
z"/>
<path fill="#010101" opacity="1.000000" stroke="none" 
	d="
M114.189735,572.975220 
	C114.189735,481.173523 114.189735,389.866852 114.189735,298.066284 
	C80.523590,298.066284 46.970123,298.066284 13.015410,298.066284 
	C13.015410,282.867584 13.015410,268.152100 13.015410,253.131622 
	C95.727905,253.131622 178.632751,253.131622 261.880676,253.131622 
	C261.880676,267.743073 261.880676,282.476990 261.880676,297.634155 
	C228.549118,297.634155 195.129105,297.634155 161.262863,297.634155 
	C161.262863,393.446930 161.262863,488.840912 161.262863,584.536499 
	C145.436813,584.536499 130.057541,584.536499 114.189735,584.536499 
	C114.189735,580.718872 114.189735,577.094543 114.189735,572.975220 
z"/>
<path fill="#010101" opacity="1.000000" stroke="none" 
	d="
M441.852112,359.821777 
	C440.550598,365.746246 439.323364,371.255554 438.304047,375.831451 
	C427.589142,376.882019 417.131775,376.779633 407.239227,379.092773 
	C379.652313,385.543304 361.195435,402.720154 354.403046,430.342499 
	C351.100220,443.774078 349.762329,457.945862 349.505219,471.819092 
	C348.844452,507.468018 349.284485,543.137329 349.284576,578.798462 
	C349.284576,580.615295 349.284607,582.432068 349.284607,584.542969 
	C334.558105,584.542969 320.136932,584.542969 305.368347,584.542969 
	C305.368347,501.547424 305.368347,418.498535 305.368347,334.983154 
	C318.659882,334.983154 332.056915,334.983154 345.985870,334.983154 
	C346.859131,347.804352 347.747192,360.842621 348.703827,374.887787 
	C372.461517,338.205994 406.935028,330.063019 447.143555,334.367126 
	C445.353577,342.957977 443.639984,351.182281 441.852112,359.821777 
z"/>
<path fill="#050505" opacity="1.000000" stroke="none" 
	d="
M1491.142578,482.999939 
	C1491.142578,433.367889 1491.142578,384.235840 1491.142578,334.790436 
	C1505.975708,334.790436 1520.535034,334.790436 1535.347412,334.790436 
	C1535.347412,418.081970 1535.347412,501.138611 1535.347412,584.521484 
	C1520.794067,584.521484 1506.382080,584.521484 1491.142578,584.521484 
	C1491.142578,550.955994 1491.142578,517.227966 1491.142578,482.999939 
z"/>
<path fill="#000000" opacity="1.000000" stroke="none" 
	d="
M843.216003,475.000153 
	C843.216003,511.777130 843.216003,548.054077 843.216003,584.582642 
	C828.392944,584.582642 813.983704,584.582642 799.286011,584.582642 
	C799.286011,501.319183 799.286011,418.124420 799.286011,334.714233 
	C813.775635,334.714233 828.192505,334.714233 843.216003,334.714233 
	C843.216003,381.333405 843.216003,427.916748 843.216003,475.000153 
z"/>
<path fill="#06A18B" opacity="1.000000" stroke="none" 
	d="
M1847.996704,183.169388 
	C1844.470947,186.792999 1841.286987,190.845810 1837.363647,193.970154 
	C1812.985596,213.384628 1786.017212,228.002365 1756.158936,237.190506 
	C1753.963501,237.866074 1752.072266,239.529648 1750.023682,241.072083 
	C1728.134033,241.410248 1706.260254,241.410248 1683.905640,241.410248 
	C1683.905640,231.774750 1683.905640,222.348419 1684.453613,212.460785 
	C1697.790039,210.672272 1710.661743,209.878326 1723.348511,207.898911 
	C1744.969482,204.525574 1765.043213,196.422424 1784.289917,186.176697 
	C1788.910767,183.716797 1793.579956,181.347733 1798.483154,179.208130 
	C1799.838257,180.652802 1800.910522,182.814545 1802.040283,182.844955 
	C1811.969727,183.112167 1821.909424,182.999725 1832.373779,182.999725 
	C1830.101074,176.140991 1827.981689,169.745041 1826.291992,163.275253 
	C1830.770386,159.678329 1834.783325,156.112930 1838.881714,152.648544 
	C1841.210571,150.680130 1843.678955,148.876953 1846.191650,147.458023 
	C1846.312256,158.158997 1846.258545,168.402313 1846.413208,178.642502 
	C1846.436035,180.159088 1847.444214,181.660812 1847.996704,183.169388 
z"/>
<path fill="#036CA0" opacity="1.000000" stroke="none" 
	d="
M1756.017212,3.820741 
	C1766.370728,3.723424 1776.724243,3.626108 1787.533325,4.082286 
	C1787.039185,12.458221 1786.921875,20.500355 1784.929932,28.047682 
	C1782.420288,37.556576 1778.379150,46.661289 1774.537598,56.029381 
	C1767.454956,56.130962 1760.825439,55.971512 1754.218994,56.289982 
	C1752.760742,56.360275 1750.614624,57.821644 1750.092163,59.154606 
	C1746.065674,69.428352 1742.361328,79.828316 1738.165161,90.156616 
	C1736.246948,90.722153 1734.633667,91.161461 1733.207764,91.942673 
	C1717.898071,100.330521 1701.537476,104.715454 1684.080200,104.998138 
	C1684.020264,95.305573 1683.960327,85.613007 1684.449097,75.459869 
	C1700.872437,75.851944 1715.001221,70.320869 1727.122192,60.991600 
	C1745.610962,46.761177 1754.910400,27.189051 1756.017212,3.820741 
z"/>
<path fill="#069390" opacity="1.000000" stroke="none" 
	d="
M1798.226929,178.936905 
	C1793.579956,181.347733 1788.910767,183.716797 1784.289917,186.176697 
	C1765.043213,196.422424 1744.969482,204.525574 1723.348511,207.898911 
	C1710.661743,209.878326 1697.790039,210.672272 1684.541138,211.999146 
	C1684.021484,198.973022 1683.962158,185.947250 1684.443359,172.460449 
	C1693.030884,171.678818 1701.077881,171.358215 1709.107178,171.422089 
	C1707.897949,175.376984 1706.706177,178.947403 1705.353882,182.998520 
	C1715.743774,182.998520 1725.519409,183.090805 1735.287842,182.867462 
	C1736.362061,182.842911 1737.888062,181.200073 1738.361084,179.980576 
	C1740.337524,174.886032 1742.174683,169.719376 1743.691772,164.471909 
	C1744.528076,161.579391 1745.863159,160.560211 1748.917236,160.625916 
	C1758.380493,160.829514 1767.851440,160.649841 1777.318604,160.724899 
	C1782.269165,160.764145 1788.236084,159.406509 1791.855225,161.682709 
	C1794.922363,163.611740 1795.297363,169.849609 1796.815796,174.197510 
	C1797.358521,175.752029 1797.760620,177.355682 1798.226929,178.936905 
z"/>
<path fill="#058F92" opacity="1.000000" stroke="none" 
	d="
M1851.021118,3.818120 
	C1860.708252,3.721135 1870.395386,3.624151 1880.536377,4.085960 
	C1880.345825,13.655827 1879.999878,22.701218 1878.968872,31.667810 
	C1878.033569,39.802082 1876.351929,47.850521 1874.537720,56.024590 
	C1864.993530,56.112385 1855.910889,56.112385 1846.083862,56.112385 
	C1846.083862,74.508766 1846.083862,92.254494 1845.728882,110.032333 
	C1844.275635,110.990417 1843.000000,111.771820 1842.107544,112.865669 
	C1835.781128,120.619736 1829.639404,128.527618 1823.178711,136.166382 
	C1821.722900,137.887680 1819.241455,138.741455 1817.063477,139.657745 
	C1813.772339,130.598862 1810.649536,121.876709 1807.901855,113.098068 
	C1811.134033,109.932114 1814.228271,107.006905 1816.811157,103.684357 
	C1839.635132,74.324890 1849.616455,40.532677 1851.021118,3.818120 
z"/>
<path fill="#048596" opacity="1.000000" stroke="none" 
	d="
M1850.572754,3.672094 
	C1849.616455,40.532677 1839.635132,74.324890 1816.811157,103.684357 
	C1814.228271,107.006905 1811.134033,109.932114 1807.703979,112.813690 
	C1803.265259,101.776840 1799.399414,90.967873 1795.909912,80.099350 
	C1798.246948,77.899033 1800.735107,76.046249 1802.086304,73.572502 
	C1813.949829,51.852936 1821.589844,28.936707 1821.019653,3.819679 
	C1830.721191,3.721809 1840.422852,3.623939 1850.572754,3.672094 
z"/>
<path fill="#069C8D" opacity="1.000000" stroke="none" 
	d="
M1874.999268,55.936802 
	C1876.351929,47.850521 1878.033569,39.802082 1878.968872,31.667810 
	C1879.999878,22.701218 1880.345825,13.655827 1880.978027,4.233063 
	C1891.011597,3.720891 1901.057373,3.620409 1911.552734,3.657966 
	C1911.489136,36.000824 1905.398193,67.002136 1891.812378,96.340889 
	C1888.535767,103.416924 1884.916382,110.338364 1881.286377,117.242531 
	C1880.685547,118.385277 1879.215698,119.071175 1877.710083,119.519951 
	C1877.256592,99.572395 1877.290771,80.072685 1877.128418,60.574627 
	C1877.115479,59.022881 1875.740967,57.482483 1874.999268,55.936802 
z"/>
<path fill="#0260A4" opacity="1.000000" stroke="none" 
	d="
M1755.568481,3.677216 
	C1754.910400,27.189051 1745.610962,46.761177 1727.122192,60.991600 
	C1715.001221,70.320869 1700.872437,75.851944 1684.539307,74.998611 
	C1684.020508,65.305435 1683.960083,55.612938 1684.406738,45.459736 
	C1707.560669,43.574463 1724.841553,25.830528 1725.016602,3.821641 
	C1735.051025,3.725658 1745.085327,3.629674 1755.568481,3.677216 
z"/>
<path fill="#030303" opacity="1.000000" stroke="none" 
	d="
M796.286560,268.468872 
	C804.171509,254.943863 818.927429,249.483200 831.806946,255.060913 
	C845.239319,260.878052 851.797241,275.507507 847.370850,289.780701 
	C842.968079,303.977814 827.617188,312.081329 813.216492,307.810303 
	C799.256104,303.669922 790.360901,287.812256 794.256348,273.937012 
	C794.747009,272.189301 795.482239,270.510284 796.286560,268.468872 
z"/>
<path fill="#020202" opacity="1.000000" stroke="none" 
	d="
M1506.259521,307.991333 
	C1491.695312,302.901947 1484.128784,291.024963 1485.939453,276.655731 
	C1487.427002,264.849091 1498.143555,254.445816 1510.406616,253.229172 
	C1522.206055,252.058533 1531.316406,256.986786 1537.213501,266.959961 
	C1543.143433,276.988678 1542.761353,287.374695 1535.911621,296.962402 
	C1528.720215,307.028381 1518.911377,310.943756 1506.259521,307.991333 
z"/>
<path fill="#04799B" opacity="1.000000" stroke="none" 
	d="
M1820.571045,3.674872 
	C1821.589844,28.936707 1813.949829,51.852936 1802.086304,73.572502 
	C1800.735107,76.046249 1798.246948,77.899033 1795.691162,79.824196 
	C1793.767090,75.865028 1791.981201,72.213989 1791.200684,68.359352 
	C1789.369385,59.316948 1785.171997,53.864838 1774.998901,55.940399 
	C1778.379150,46.661289 1782.420288,37.556576 1784.929932,28.047682 
	C1786.921875,20.500355 1787.039185,12.458221 1787.975708,4.227015 
	C1798.682495,3.722186 1809.402588,3.626125 1820.571045,3.674872 
z"/>
<path fill="#04779C" opacity="1.000000" stroke="none" 
	d="
M1683.990723,105.459572 
	C1701.537476,104.715454 1717.898071,100.330521 1733.207764,91.942673 
	C1734.633667,91.161461 1736.246948,90.722153 1738.072266,90.532288 
	C1733.713623,103.669693 1729.055786,116.398918 1723.962646,129.093628 
	C1722.236572,129.251801 1720.919800,129.338730 1719.659790,129.653610 
	C1707.977173,132.573471 1696.203979,134.714523 1684.079102,133.998550 
	C1684.019897,124.639366 1683.960571,115.280190 1683.990723,105.459572 
z"/>
<path fill="#0154A9" opacity="1.000000" stroke="none" 
	d="
M1724.567871,3.678275 
	C1724.841553,25.830528 1707.560669,43.574463 1684.497559,44.998589 
	C1684.081299,31.427658 1684.081299,17.857176 1684.081299,3.534909 
	C1697.460815,3.534909 1710.790039,3.534909 1724.567871,3.678275 
z"/>
<path fill="#058297" opacity="1.000000" stroke="none" 
	d="
M1683.990356,134.460068 
	C1696.203979,134.714523 1707.977173,132.573471 1719.659790,129.653610 
	C1720.919800,129.338730 1722.236572,129.251801 1723.891113,129.473373 
	C1719.211670,143.604294 1714.168213,157.320953 1709.124756,171.037613 
	C1701.077881,171.358215 1693.030884,171.678818 1684.531738,171.998886 
	C1684.020142,159.639435 1683.960815,147.280502 1683.990356,134.460068 
z"/>
<path fill="#FBFDFD" opacity="1.000000" stroke="none" 
	d="
M1874.537720,56.024597 
	C1875.740967,57.482483 1877.115479,59.022881 1877.128418,60.574627 
	C1877.290771,80.072685 1877.256592,99.572395 1877.365234,119.531433 
	C1877.387939,131.356461 1877.318237,142.721756 1877.350098,154.546005 
	C1877.451782,164.101593 1877.451782,173.198196 1877.451782,183.026108 
	C1867.668579,183.026108 1858.296631,183.026108 1848.460693,183.097748 
	C1847.444214,181.660812 1846.436035,180.159088 1846.413208,178.642502 
	C1846.258545,168.402313 1846.312256,158.158997 1846.297729,146.999329 
	C1846.225708,134.054733 1846.154785,122.027473 1846.083862,110.000221 
	C1846.083862,92.254494 1846.083862,74.508766 1846.083862,56.112385 
	C1855.910889,56.112385 1864.993530,56.112385 1874.537720,56.024597 
z"/>
<path fill="#FEFEFE" opacity="1.000000" stroke="none" 
	d="
M683.892334,429.216675 
	C696.470459,464.916046 687.481262,499.308136 659.301208,524.049316 
	C632.733154,547.375244 589.136536,550.231934 559.773376,530.570984 
	C528.151978,509.397980 513.953369,475.041229 523.285522,438.650818 
	C534.171509,396.201447 575.963135,367.281006 620.984680,376.556519 
	C651.074341,382.755646 671.714172,400.772827 683.892334,429.216675 
z"/>
<path fill="#FDFEFE" opacity="1.000000" stroke="none" 
	d="
M1709.107178,171.422089 
	C1714.168213,157.320953 1719.211670,143.604294 1724.326660,129.507874 
	C1729.055786,116.398918 1733.713623,103.669693 1738.464233,90.564789 
	C1742.361328,79.828316 1746.065674,69.428352 1750.092163,59.154606 
	C1750.614624,57.821644 1752.760742,56.360275 1754.218994,56.289982 
	C1760.825439,55.971512 1767.454956,56.130962 1774.537598,56.029388 
	C1785.171997,53.864838 1789.369385,59.316948 1791.200684,68.359352 
	C1791.981201,72.213989 1793.767090,75.865028 1795.314941,79.883743 
	C1799.399414,90.967873 1803.265259,101.776840 1807.328857,112.870186 
	C1810.649536,121.876709 1813.772339,130.598862 1817.090820,140.017761 
	C1820.145020,148.259399 1823.003540,155.804276 1825.862183,163.349121 
	C1827.981689,169.745041 1830.101074,176.140991 1832.373779,182.999725 
	C1821.909424,182.999725 1811.969727,183.112167 1802.040283,182.844955 
	C1800.910522,182.814545 1799.838257,180.652802 1798.483154,179.208130 
	C1797.760620,177.355682 1797.358521,175.752029 1796.815796,174.197510 
	C1795.297363,169.849609 1794.922363,163.611740 1791.855225,161.682709 
	C1788.236084,159.406509 1782.269165,160.764145 1777.318604,160.724899 
	C1767.851440,160.649841 1758.380493,160.829514 1748.917236,160.625916 
	C1745.863159,160.560211 1744.528076,161.579391 1743.691772,164.471909 
	C1742.174683,169.719376 1740.337524,174.886032 1738.361084,179.980576 
	C1737.888062,181.200073 1736.362061,182.842911 1735.287842,182.867462 
	C1725.519409,183.090805 1715.743774,182.998520 1705.353882,182.998520 
	C1706.706177,178.947403 1707.897949,175.376984 1709.107178,171.422089 
M1764.529053,136.870483 
	C1770.938354,136.870483 1777.347778,136.870483 1784.442993,136.870483 
	C1779.140869,121.253662 1774.086670,106.366821 1768.648193,90.348297 
	C1763.261353,106.567390 1758.316284,121.456871 1753.196899,136.870682 
	C1757.245239,136.870682 1760.394653,136.870682 1764.529053,136.870483 
z"/>
<path fill="#06998F" opacity="1.000000" stroke="none" 
	d="
M1826.291748,163.275284 
	C1823.003540,155.804276 1820.145020,148.259399 1817.259277,140.354492 
	C1819.241455,138.741455 1821.722900,137.887680 1823.178711,136.166382 
	C1829.639404,128.527618 1835.781128,120.619736 1842.107544,112.865669 
	C1843.000000,111.771820 1844.275635,110.990417 1845.728882,110.032333 
	C1846.154785,122.027473 1846.225708,134.054733 1846.190552,146.540680 
	C1843.678955,148.876953 1841.210571,150.680130 1838.881714,152.648544 
	C1834.783325,156.112930 1830.770386,159.678329 1826.291748,163.275284 
z"/>
<path fill="#0A8599" opacity="1.000000" stroke="none" 
	d="
M1764.036621,136.870575 
	C1760.394653,136.870682 1757.245239,136.870682 1753.196899,136.870682 
	C1758.316284,121.456871 1763.261353,106.567390 1768.648193,90.348297 
	C1774.086670,106.366821 1779.140869,121.253662 1784.442993,136.870483 
	C1777.347778,136.870483 1770.938354,136.870483 1764.036621,136.870575 
z"/>
</svg>